PathFileType	4	(X/Y/Z)	C:/Users/beibeiliu/ov580/test_trc\sequence.25_training_dense_right.trc
DataRate	CameraRate	NumFrames	NumMarkers	Units	OrigDataRate	OrigDataStartFrame	OrigNumFrames
120	120	18	19	mm	120	29	84
Frame#	Time	ThumbCMC			ThumbMCP			ThumbIP			ThumbTip			IndexMCP			IndexPIP			IndexTip			MiddleMCP			MiddlePIP			MiddleTip			RingMCP			RingPIP			RingTip			PinkyMCP			PinkyPIP			PinkyTip			BackHand1			BackHand2			BackHand3	
		X0	Y0	Z0	X1	Y1	Z1	X2	Y2	Z2	X3	Y3	Z3	X4	Y4	Z4	X5	Y5	Z5	X6	Y6	Z6	X7	Y7	Z7	X8	Y8	Z8	X9	Y9	Z9	X10	Y10	Z10	X11	Y11	Z11	X12	Y12	Z12	X13	Y13	Z13	X14	Y14	Z14	X15	Y15	Z15	X16	Y16	Z16	X17	Y17	Z17	X18	Y18	Z18	
28	0.233333	87.3331	99.7531	9.92045	60.5798	99.0013	-3.39532	44.6341	84.1648	-7.54665	32.6942	60.8181	-2.51839	38.6934	61.1824	-22.6712	18.0899	59.5185	-6.98613	30.1919	76.708	19.1299	40.0133	45.1178	-10.9757	23.0149	49.5615	11.2871	48.0155	66.9329	26.7944	46.3507	32.8224	2.65286	34.721	42.9513	23.9948	55.5246	58.9271	32.6464	58.794	24.2092	13.348	44.4128	35.9079	29.7014	60.2305	53.7401	38.0327	97.6488	48.7617	0.292962	119.517	60.3546	14.7214	98.2735	77.3556	-5.73287	
29	0.241667	93.601	94.5422	11.4523	69.7778	105.166	-2.32304	44.8084	99.3395	-11.975	26.2261	81.2596	-6.30032	31.8936	68.7636	-17.8297	12.7285	76.5691	-4.78983	27.1609	89.9411	17.8475	26.8908	55.7544	-5.57408	15.5117	68.3828	17.6548	44.7529	80.934	26.0231	32.6703	43.3979	8.70543	23.1297	62.0499	27.8152	49.3051	70.9763	33.5228	40.999	33.5794	19.3063	28.7066	50.6068	34.9688	48.2169	63.1153	42.7804	82.362	42.0322	6.45088	108.209	46.7137	19.7933	96.5661	70.6477	-0.22744	
30	0.25	93.4065	88.9772	8.00094	74.4982	103.305	-7.18997	52.9983	104.739	-14.2128	30.8801	100.45	-14.2756	32.5507	80.2751	-21.7118	13.2503	91.4283	-5.55235	30.4667	102.277	13.8346	21.3069	68.2885	-5.11987	12.0514	87.425	15.445	42.1944	87.9815	25.0959	19.2365	57.1838	9.80535	16.5346	79.6905	24.4647	45.4638	76.9233	33.9575	25.9594	47.0207	21.0188	18.7105	67.7034	29.9537	39.5934	75.5728	37.9052	68.8257	40.5333	13.345	91.9766	41.9643	24.2876	90.2953	61.1054	2.34183	
31	0.258333	93.9594	80.6403	8.04778	76.7411	97.1656	-12.2378	58.5987	102.146	-21.7359	34.1173	105.107	-26.003	34.8205	78.4741	-24.8636	18.2341	101.648	-15.7345	37.4297	107.027	6.28142	18.2506	75.2668	-11.912	12.3198	97.493	5.62527	44.9202	95.0029	17.2366	14.5133	68.5979	3.54091	15.4956	90.3566	17.9677	40.6941	87.9075	24.8496	16.242	54.8445	19.1581	11.9874	77.8539	22.2993	36.2907	83.7707	28.799	58.3569	41.8893	13.3784	83.6553	37.2094	26.7556	81.922	52.0959	5.27233	
32	0.266667	97.8746	71.2996	7.11553	83.8706	86.8194	-19.0853	66.8378	93.1522	-34.5612	43.7297	97.9291	-39.0876	42.1289	73.2168	-35.6162	30.2844	102.728	-34.5279	44.7128	109.7	-13.394	26.031	74.2524	-23.6876	22.2055	103.837	-14.7081	45.4616	95.1834	6.7723	16.0858	70.826	-8.39637	17.8265	96.4614	-1.44026	40.6753	89.2144	15.8038	14.032	60.1824	7.782	7.78069	84.9915	9.07194	34.7444	88.2675	17.2926	50.0137	38.212	14.2601	67.3534	34.1348	31.694	74.8455	44.4567	3.88074	
33	0.275	94.4494	62.8296	8.66566	92.2262	74.8733	-18.3183	77.3474	79.8221	-37.8548	52.9313	84.2522	-50.7221	50.3069	63.694	-47.7318	40.5708	88.5055	-52.2999	50.902	102.338	-28.2165	30.3498	66.7255	-32.7966	29.8167	97.5273	-33.3469	50.3738	94.0125	-9.20242	17.1113	69.8827	-22.6769	21.7534	94.7314	-19.1755	38.8784	92.0777	1.45852	11.4774	61.8002	-5.82933	9.84879	85.2891	-11.7988	33.9586	94.3193	3.42193	45.4532	36.6595	11.8784	59.4095	34.8841	30.6204	76.5047	39.8555	7.75708	
34	0.283333	91.7498	59.152	11.6617	95.0227	62.866	-18.8781	82.8357	63.7146	-34.9425	59.8021	67.1259	-53.2719	56.8853	48.2148	-44.853	55.2977	73.7049	-61.7464	62.3553	91.1802	-42.1221	42.1961	56.2824	-45.3767	40.6999	83.5294	-48.918	56.5133	83.6598	-18.635	26.8296	59.1379	-32.7003	28.7815	83.4831	-37.0191	47.7943	86.5279	-12.5033	15.9633	57.4185	-15.7492	15.8435	77.571	-28.733	36.0869	89.8732	-17.9174	42.1349	40.8913	15.0584	54.4788	41.7568	37.2641	72.1075	37.763	12.2244	
35	0.291667	94.9335	62.0513	20.1143	100.154	55.4315	-13.5647	91.9224	51.7144	-33.8662	68.2087	52.4075	-44.6223	72.8998	32.6929	-43.3029	66.602	51.3569	-59.8188	75.8676	76.7754	-47.4181	52.2235	41.1853	-44.9576	53.4062	68.2393	-54.1481	61.6618	76.7765	-23.7665	34.7362	46.7863	-33.1563	44.3083	70.7599	-45.6587	52.7254	81.107	-19.0107	24.5569	47.1109	-21.8692	26.3281	59.7259	-38.1076	42.3699	80.0591	-29.5731	48.2971	38.5843	16.8585	53.6501	48.2856	42.6716	72.5025	38.2088	22.3441	
36	0.3	100.816	62.247	21.631	109.056	56.4351	-5.10534	100.631	41.436	-28.6251	79.997	39.5212	-40.9021	86.4965	22.3644	-32.0061	87.4335	37.3063	-55.5682	85.2413	64.0032	-45.1181	72.2279	26.7916	-38.2697	68.7546	49.6053	-53.101	77.2077	66.7544	-24.5193	51.872	32.013	-30.5414	57.2177	55.5785	-45.4967	63.9765	68.9434	-22.4474	35.7363	35.4007	-17.0455	40.6779	47.6974	-42.1024	53.8394	64.487	-37.9687	57.042	37.3742	19.8962	59.8889	46.9495	40.7783	81.9869	41.3129	31.1931	
37	0.308333	106.49	69.7119	24.8724	122.454	60.8693	-3.05567	117.204	41.1432	-24.9311	96.7493	32.2157	-36.0642	111.617	20.8635	-24.0801	106.666	30.5199	-49.456	103.622	60.9638	-41.6209	94.4799	16.9539	-32.234	86.4205	37.7222	-50.464	85.9646	57.9443	-24.0065	75.0707	17.2189	-27.1805	75.7156	41.5515	-44.1134	77.9712	57.5456	-24.0752	57.5364	17.4047	-18.2774	61.9829	29.9297	-40.5843	70.216	53.0463	-33.5087	72.7668	28.6066	24.4915	68.4187	40.4898	42.5174	96.9306	38.6509	30.7602	
38	0.316667	111.688	74.999	25.1706	130.555	70.7459	-1.65378	133.119	50.7717	-22.1208	119.416	37.0319	-34.8012	137.384	29.554	-26.101	130.554	41.1588	-49.1976	113.193	63.2422	-38.6202	120.602	18.7465	-29.9082	112.335	36.9905	-50.9794	101.636	57.903	-26.0443	106.444	14.8606	-30.6096	96.9791	31.9455	-46.0335	92.2086	51.5371	-24.5725	88.4691	7.98028	-17.457	87.3057	16.7133	-39.9355	86.7445	41.8923	-33.6791	94.6766	24.8421	22.2858	87.5039	35.8165	40.653	112.56	41.4802	32.7713	
39	0.325	113.992	82.083	23.7768	134.48	80.6015	-2.48301	141.729	65.8335	-20.1321	135.804	50.2683	-34.7329	155.764	52.3779	-21.1055	149.007	58.3123	-49.4727	121.566	72.4409	-41.5334	148.273	36.698	-32.9032	127.816	47.3067	-52.5472	110.414	57.4603	-27.1237	132.679	21.0598	-33.9048	118.866	38.1691	-47.7422	105.197	50.0267	-25.2071	122.551	11.829	-21.3306	115.578	21.262	-43.8508	101.857	41.0234	-32.2111	116.81	23.1987	18.9088	100.632	31.2377	38.6588	126.75	49.9494	31.2043	
40	0.333333	112.153	82.4066	21.6284	125.791	93.2313	-1.60729	140.733	89.0992	-21.1345	145.505	68.8634	-35.7257	162.376	75.8953	-22.8771	152.224	75.2285	-50.2674	120.872	76.3466	-40.6292	160.118	54.4385	-33.1164	141.975	60.6197	-54.2417	117.292	61.6824	-30.4591	152.505	36.1173	-31.9151	135.009	46.9296	-50.4796	113.967	49.6666	-32.4351	147.139	20.4345	-25.9435	136.109	29.861	-47.2232	115.229	40.8429	-37.5211	138.1	34.4754	16.1246	121.195	32.1241	36.4855	132.144	56.7625	27.9301	
41	0.341667	104.824	81.1029	19.4668	108.827	101.153	-1.35561	126.91	105.655	-20.3694	140.264	96.2671	-41.0876	153.58	99.9942	-25.5136	143.414	94.9004	-52.6072	116.72	86.0561	-44.1693	159.59	81.877	-37.8955	140.349	73.4267	-56.9069	119.529	64.9673	-31.8021	161.641	60.502	-37.7007	143.009	62.8352	-53.8984	119.96	54.7618	-33.6494	161.728	41.6441	-27.1986	146.732	50.0142	-49.204	125.349	47.7254	-42.5526	148.847	49.1878	15.8428	134.062	42.186	30.1128	131.843	71.6693	26.7521	
42	0.35	98.3315	82.2286	16.0204	93.546	100.783	-3.75884	104.279	116.706	-23.2702	118.754	119.424	-44.741	136.899	116.167	-31.8586	128.316	110.147	-54.5087	107.137	91.4855	-45.1473	148.359	102.808	-41.7316	133.948	91.8668	-61.3782	114.028	74.448	-38.7942	153.819	88.1444	-38.7247	136.833	80.078	-58.0522	118.194	68.7325	-42.8619	163.776	68.5221	-32.6211	150.847	69.2404	-54.5667	125.241	60.6129	-47.2839	149.128	69.9899	11.6183	140.139	56.9558	26.4489	127.323	85.365	20.9384	
43	0.358333	85.5284	82.6957	12.736	78.7977	98.6623	-7.55668	81.3798	114.808	-25.2358	90.0269	123.78	-43.8366	111.829	127.338	-30.6179	100.615	119.819	-59.3738	90.4622	96.3741	-48.8788	125.391	120.125	-40.2099	112.203	108.203	-65.1401	102.742	84.2383	-47.0007	139.174	109.506	-41.4495	122.699	96.3928	-62.6099	114.273	75.8084	-49.2923	153.324	95.8679	-38.7224	138.138	93.0017	-58.1091	121.068	74.6989	-53.4445	139.234	88.7587	6.62543	136.179	74.1254	22.6376	116.972	91.0596	18.4628	
44	0.366667	80.2134	84.1739	5.15573	64.706	95.516	-11.5239	62.9377	111.309	-29.9371	67.5061	123.295	-49.8927	85.2839	136.344	-39.1233	78.8256	126.895	-63.0017	80.1294	96.7984	-53.6946	101.348	131.717	-47.7995	96.657	114.904	-70.8519	91.8166	89.8167	-51.3286	119.011	124.58	-50.6834	106.648	108.216	-68.8628	104.154	86.2202	-55.1732	132.368	113.827	-42.5245	123.256	106.7	-64.6031	108.982	88.7692	-58.1889	126.993	107.433	-1.20919	127.658	84.3934	17.3003	101.688	99.4644	13.8292	
45	0.375	70.5954	85.617	-0.647728	51.9165	96.6136	-20.0218	46.5725	110.937	-39.0162	50.1295	122.073	-60.6454	70.2869	135.047	-43.9318	62.3316	124.768	-70.671	66.5047	95.6267	-58.732	83.3883	135.559	-54.7539	78.9909	119.967	-78.4736	83.0028	92.5544	-58.1063	102.146	130.13	-53.4756	94.1237	113.34	-75.7087	93.1003	90.4945	-61.1625	120.996	124.796	-52.2262	110.157	117.832	-69.7793	102.76	90.9952	-68.6611	110.886	113.832	-7.59466	120.191	96.3146	12.1766	86.3727	107.902	5.61108	
